<?xml version="1.0" encoding="utf-8"?>
<svg version="1.1" xmlns:xlink="http://www.w3.org/1999/xlink" width="25px" height="25px" xmlns="http://www.w3.org/2000/svg">
  <g transform="matrix(1 0 0 1 -396 -77 )">
    <path d="M 16.943359375 4.833984375  C 15.5870225694444 4.04188368055556  14.1059027777778 3.64583333333333  12.5 3.64583333333333  C 10.8940972222222 3.64583333333333  9.41297743055556 4.04188368055556  8.056640625 4.833984375  C 6.70030381944444 5.62608506944444  5.62608506944444 6.70030381944444  4.833984375 8.056640625  C 4.04188368055556 9.41297743055556  3.64583333333333 10.8940972222222  3.64583333333333 12.5  C 3.64583333333333 14.1059027777778  4.04188368055556 15.5870225694444  4.833984375 16.943359375  C 5.62608506944444 18.2996961805556  6.70030381944444 19.3739149305556  8.056640625 20.166015625  C 9.41297743055556 20.9581163194444  10.8940972222222 21.3541666666667  12.5 21.3541666666667  C 14.1059027777778 21.3541666666667  15.5870225694444 20.9581163194444  16.943359375 20.166015625  C 18.2996961805556 19.3739149305556  19.3739149305556 18.2996961805556  20.166015625 16.943359375  C 20.9581163194444 15.5870225694444  21.3541666666667 14.1059027777778  21.3541666666667 12.5  C 21.3541666666667 10.8940972222222  20.9581163194444 9.41297743055556  20.166015625 8.056640625  C 19.3739149305556 6.70030381944444  18.2996961805556 5.62608506944444  16.943359375 4.833984375  Z M 23.3235677083333 6.2255859375  C 24.4411892361111 8.14073350694444  25 10.2322048611111  25 12.5  C 25 14.7677951388889  24.4411892361111 16.8592664930556  23.3235677083333 18.7744140625  C 22.2059461805556 20.6895616319444  20.6895616319444 22.2059461805556  18.7744140625 23.3235677083333  C 16.8592664930556 24.4411892361111  14.7677951388889 25  12.5 25  C 10.2322048611111 25  8.14073350694444 24.4411892361111  6.2255859375 23.3235677083333  C 4.31043836805556 22.2059461805556  2.79405381944444 20.6895616319444  1.67643229166667 18.7744140625  C 0.558810763888889 16.8592664930556  0 14.7677951388889  0 12.5  C 0 10.2322048611111  0.558810763888889 8.14073350694444  1.67643229166667 6.2255859375  C 2.79405381944444 4.31043836805556  4.31043836805556 2.79405381944444  6.2255859375 1.67643229166667  C 8.14073350694444 0.558810763888887  10.2322048611111 0  12.5 0  C 14.7677951388889 0  16.8592664930556 0.558810763888887  18.7744140625 1.67643229166667  C 20.6895616319444 2.79405381944444  22.2059461805556 4.31043836805556  23.3235677083333 6.2255859375  Z " fill-rule="nonzero" fill="#788f9f" stroke="none" transform="matrix(1 0 0 1 396 77 )" />
  </g>
</svg>