<?xml version="1.0" encoding="utf-8"?>
<svg version="1.1" xmlns:xlink="http://www.w3.org/1999/xlink" width="70px" height="47px" xmlns="http://www.w3.org/2000/svg">
  <g transform="matrix(1 0 0 1 -18 -39 )">
    <path d="M 54.8333333333333 37  L 15.1666666666667 37  C 13.5625 37.6  12.1892361111111 37.0247395833333  11.046875 35.87421875  C 9.90451388888889 34.7236979166667  9.33333333333333 33.340625  10 31.725  L 10 5.875  C 9.33333333333333 4.259375  9.90451388888889 2.87630208333333  11.046875 1.72578125  C 12.1892361111111 0.57526041666666  13.5625 0  15.1666666666667 0  L 54.8333333333333 0  C 56.4375 0  57.8107638888889 0.57526041666666  58.953125 1.72578125  C 60.0954861111111 2.87630208333333  60.6666666666667 4.259375  60 5.875  L 60 31.725  C 60.6666666666667 33.340625  60.0954861111111 34.7236979166667  58.953125 35.87421875  C 57.8107638888889 37.0247395833333  56.4375 37.6  54.8333333333333 37  Z M 14.3463541666667 5.048828125  C 14.1154513888889 5.28138020833333  14 5.55677083333333  14 5.875  L 14 31.725  C 14 32.0432291666667  14.1154513888889 32.3186197916667  14.3463541666667 32.551171875  C 14.5772569444444 32.7837239583333  14.8506944444444 32.9  15.1666666666667 32  L 54.8333333333333 32  C 55.1493055555556 32.9  55.4227430555556 32.7837239583333  55.6536458333333 32.551171875  C 55.8845486111111 32.3186197916667  56 32.0432291666667  56 31.725  L 56 5.875  C 56 5.55677083333333  55.8845486111111 5.28138020833333  55.6536458333333 5.048828125  C 55.4227430555556 4.81627604166666  55.1493055555556 4.7  54.8333333333333 5  L 15.1666666666667 5  C 14.8506944444444 4.7  14.5772569444444 4.81627604166666  14.3463541666667 5.048828125  Z M 5.83333333333333 40  L 64.1666666666667 40  L 70 39.95  L 70 43.475  C 70 44.4541666666667  69.4288194444444 45.2864583333333  68.2864583333333 45.971875  C 67.1440972222222 46.6572916666667  65.7708333333333 47  64.1666666666667 47  L 5.83333333333333 47  C 4.22916666666667 47  2.85590277777778 46.6572916666667  1.71354166666667 45.971875  C 0.571180555555556 45.2864583333333  0 44.4541666666667  0 43.475  L 0 39.95  L 5.83333333333333 40  Z M 32.0833333333333 43.475  L 37.9166666666667 43.475  C 38.3055555555556 43.475  38.5 43.2791666666667  38.5 42.8875  C 38.5 42.4958333333333  38.3055555555556 42.3  37.9166666666667 42.3  L 32.0833333333333 42.3  C 31.6944444444445 42.3  31.5 42.4958333333333  31.5 42.8875  C 31.5 43.2791666666667  31.6944444444445 43.475  32.0833333333333 43.475  Z " fill-rule="nonzero" fill="#ffffff" stroke="none" transform="matrix(1 0 0 1 18 39 )" />
  </g>
</svg>