<?xml version="1.0" encoding="utf-8"?>
<svg version="1.1" xmlns:xlink="http://www.w3.org/1999/xlink" width="31px" height="16px" xmlns="http://www.w3.org/2000/svg">
  <g transform="matrix(1 0 0 1 -38 -294 )">
    <path d="M 13.2880208333333 9.359375  C 13.3848958333333 9.265625  13.4333333333333 9.14583333333333  13.4333333333333 9  L 13.4333333333333 7  C 13.4333333333333 6.85416666666667  13.3848958333333 6.734375  13.2880208333333 6.640625  C 13.1911458333333 6.546875  13.0673611111111 6.5  12.9166666666667 6.5  L 9.81666666666667 6.5  L 9.81666666666667 3.5  C 9.81666666666667 3.35416666666667  9.76822916666667 3.234375  9.67135416666667 3.140625  C 9.57447916666667 3.046875  9.45069444444445 3  9.3 3  L 7.23333333333333 3  C 7.08263888888889 3  6.95885416666667 3.046875  6.86197916666667 3.140625  C 6.76510416666667 3.234375  6.71666666666667 3.35416666666667  6.71666666666667 3.5  L 6.71666666666667 6.5  L 3.61666666666667 6.5  C 3.46597222222222 6.5  3.3421875 6.546875  3.2453125 6.640625  C 3.1484375 6.734375  3.1 6.85416666666667  3.1 7  L 3.1 9  C 3.1 9.14583333333333  3.1484375 9.265625  3.2453125 9.359375  C 3.3421875 9.453125  3.46597222222222 9.5  3.61666666666667 9.5  L 6.71666666666667 9.5  L 6.71666666666667 12.5  C 6.71666666666667 12.6458333333333  6.76510416666667 12.765625  6.86197916666667 12.859375  C 6.95885416666667 12.953125  7.08263888888889 13  7.23333333333333 13  L 9.3 13  C 9.45069444444445 13  9.57447916666667 12.953125  9.67135416666667 12.859375  C 9.76822916666667 12.765625  9.81666666666667 12.6458333333333  9.81666666666667 12.5  L 9.81666666666667 9.5  L 12.9166666666667 9.5  C 13.0673611111111 9.5  13.1911458333333 9.453125  13.2880208333333 9.359375  Z M 22.1278645833333 11.4140625  C 22.5315104166667 11.0234375  22.7333333333333 10.5520833333333  22.7333333333333 10  C 22.7333333333333 9.44791666666666  22.5315104166667 8.9765625  22.1278645833333 8.5859375  C 21.72421875 8.1953125  21.2371527777778 8  20.6666666666667 8  C 20.0961805555556 8  19.6091145833333 8.1953125  19.20546875 8.5859375  C 18.8018229166667 8.9765625  18.6 9.44791666666666  18.6 10  C 18.6 10.5520833333333  18.8018229166667 11.0234375  19.20546875 11.4140625  C 19.6091145833333 11.8046875  20.0961805555556 12  20.6666666666667 12  C 21.2371527777778 12  21.72421875 11.8046875  22.1278645833333 11.4140625  Z M 26.2611979166667 7.4140625  C 26.66484375 7.0234375  26.8666666666667 6.55208333333333  26.8666666666667 6  C 26.8666666666667 5.44791666666667  26.66484375 4.9765625  26.2611979166667 4.5859375  C 25.8575520833333 4.1953125  25.3704861111111 4  24.8 4  C 24.2295138888889 4  23.7424479166667 4.1953125  23.3388020833333 4.5859375  C 22.93515625 4.9765625  22.7333333333333 5.44791666666667  22.7333333333333 6  C 22.7333333333333 6.55208333333333  22.93515625 7.0234375  23.3388020833333 7.4140625  C 23.7424479166667 7.8046875  24.2295138888889 8  24.8 8  C 25.3704861111111 8  25.8575520833333 7.8046875  26.2611979166667 7.4140625  Z M 28.578125 2.34375  C 30.1927083333333 3.90625  31 5.79166666666667  31 8  C 31 10.2083333333333  30.1927083333333 12.09375  28.578125 13.65625  C 26.9635416666667 15.21875  25.0152777777778 16  22.7333333333333 16  C 20.6666666666667 16  18.8475694444444 15.3333333333333  17.2760416666667 14  L 13.7239583333333 14  C 12.1524305555556 15.3333333333333  10.3333333333333 16  8.26666666666667 16  C 5.98472222222222 16  4.03645833333333 15.21875  2.421875 13.65625  C 0.807291666666667 12.09375  0 10.2083333333333  0 8  C 0 5.79166666666667  0.807291666666667 3.90625  2.421875 2.34375  C 4.03645833333333 0.78125  5.98472222222222 0  8.26666666666667 0  L 22.7333333333333 0  C 25.0152777777778 0  26.9635416666667 0.78125  28.578125 2.34375  Z " fill-rule="nonzero" fill="#ffffff" stroke="none" transform="matrix(1 0 0 1 38 294 )" />
  </g>
</svg>