<?xml version="1.0" encoding="utf-8"?>
<svg version="1.1" xmlns:xlink="http://www.w3.org/1999/xlink" width="28px" height="33px" xmlns="http://www.w3.org/2000/svg">
  <g transform="matrix(1 0 0 1 -39 -186 )">
    <path d="M 18.659375 25.609375  C 22.0864583333333 22.9739583333333  23.8 20.3958333333333  23.8 17.875  L 23.8 4.125  L 14 4.125  L 14 28.552734375  C 15.7354166666667 27.650390625  17.2885416666667 26.6692708333333  18.659375 25.609375  Z M 27.584375 0.408203124999999  C 27.8614583333333 0.680338541666662  28 1.00260416666666  28 1.375  L 28 17.875  C 28 19.1067708333333  27.7557291666667 20.3277994791667  27.2671875 21.5380859375  C 26.7786458333333 22.7483723958333  26.1734375 23.8225911458333  25.4515625 24.7607421875  C 24.7296875 25.6988932291667  23.8692708333333 26.6119791666667  22.8703125 27.5  C 21.8713541666667 28.3880208333333  20.9489583333333 29.1256510416667  20.103125 29.712890625  C 19.2572916666667 30.3001302083333  18.375 30.8551432291667  17.45625 31.3779296875  C 16.5375 31.9007161458333  15.8848958333333 32.2552083333333  15.4984375 32.44140625  C 15.1119791666667 32.6276041666667  14.8020833333333 32.7708333333333  14.56875 32.87109375  C 14.39375 32.95703125  14.2041666666667 33  14 33  C 13.7958333333333 33  13.60625 32.95703125  13.43125 32.87109375  C 13.1979166666667 32.7708333333333  12.8880208333333 32.6276041666667  12.5015625 32.44140625  C 12.1151041666667 32.2552083333333  11.4625 31.9007161458333  10.54375 31.3779296875  C 9.625 30.8551432291667  8.74270833333333 30.3001302083333  7.896875 29.712890625  C 7.05104166666667 29.1256510416667  6.12864583333333 28.3880208333333  5.1296875 27.5  C 4.13072916666667 26.6119791666667  3.2703125 25.6988932291667  2.5484375 24.7607421875  C 1.8265625 23.8225911458333  1.22135416666667 22.7483723958333  0.7328125 21.5380859375  C 0.244270833333333 20.3277994791667  0 19.1067708333333  0 17.875  L 0 1.375  C 0 1.00260416666666  0.138541666666667 0.680338541666662  0.415625 0.408203124999999  C 0.692708333333333 0.136067708333332  1.02083333333333 0  1.4 0  L 26.6 0  C 26.9791666666667 0  27.3072916666667 0.136067708333332  27.584375 0.408203124999999  Z " fill-rule="nonzero" fill="#ffffff" stroke="none" transform="matrix(1 0 0 1 39 186 )" />
  </g>
</svg>