<?xml version="1.0" encoding="utf-8"?>
<svg version="1.1" xmlns:xlink="http://www.w3.org/1999/xlink" width="30px" height="30px" xmlns="http://www.w3.org/2000/svg">
  <g transform="matrix(1 0 0 1 -134 -45 )">
    <path d="M 24.62890625 17.12890625  C 24.8763020833333 16.8815104166667  25 16.5885416666667  25 16.25  L 25 13.75  C 25 13.4114583333333  24.8763020833333 13.1184895833333  24.62890625 12.87109375  C 24.3815104166667 12.6236979166667  24.0885416666667 12.5  23.75 12.5  L 13.9453125 12.5  L 17.63671875 8.80859375  C 17.8841145833333 8.56119791666666  18.0078125 8.26822916666666  18.0078125 7.9296875  C 18.0078125 7.59114583333333  17.8841145833333 7.29817708333333  17.63671875 7.05078125  L 15.859375 5.2734375  C 15.625 5.0390625  15.33203125 4.921875  14.98046875 4.921875  C 14.62890625 4.921875  14.3359375 5.0390625  14.1015625 5.2734375  L 7.03125 12.34375  L 5.25390625 14.12109375  C 5.01953125 14.35546875  4.90234375 14.6484375  4.90234375 15  C 4.90234375 15.3515625  5.01953125 15.64453125  5.25390625 15.87890625  L 7.03125 17.65625  L 14.1015625 24.7265625  C 14.3359375 24.9609375  14.62890625 25.078125  14.98046875 25.078125  C 15.33203125 25.078125  15.625 24.9609375  15.859375 24.7265625  L 17.63671875 22.94921875  C 17.87109375 22.71484375  17.98828125 22.421875  17.98828125 22.0703125  C 17.98828125 21.71875  17.87109375 21.42578125  17.63671875 21.19140625  L 13.9453125 17.5  L 23.75 17.5  C 24.0885416666667 17.5  24.3815104166667 17.3763020833333  24.62890625 17.12890625  Z M 27.98828125 7.470703125  C 29.3294270833333 9.76888020833333  30 12.2786458333333  30 15  C 30 17.7213541666667  29.3294270833333 20.2311197916667  27.98828125 22.529296875  C 26.6471354166667 24.8274739583333  24.8274739583333 26.6471354166667  22.529296875 27.98828125  C 20.2311197916667 29.3294270833333  17.7213541666667 30  15 30  C 12.2786458333333 30  9.76888020833333 29.3294270833333  7.470703125 27.98828125  C 5.17252604166667 26.6471354166667  3.35286458333333 24.8274739583333  2.01171875 22.529296875  C 0.670572916666667 20.2311197916667  0 17.7213541666667  0 15  C 0 12.2786458333333  0.670572916666667 9.76888020833333  2.01171875 7.470703125  C 3.35286458333333 5.17252604166667  5.17252604166667 3.35286458333333  7.470703125 2.01171875  C 9.76888020833333 0.670572916666664  12.2786458333333 0  15 0  C 17.7213541666667 0  20.2311197916667 0.670572916666664  22.529296875 2.01171875  C 24.8274739583333 3.35286458333333  26.6471354166667 5.17252604166667  27.98828125 7.470703125  Z " fill-rule="nonzero" fill="#aaaaaa" stroke="none" transform="matrix(1 0 0 1 134 45 )" />
  </g>
</svg>