<?xml version="1.0" encoding="utf-8"?>
<svg version="1.1" xmlns:xlink="http://www.w3.org/1999/xlink" width="31px" height="24px" xmlns="http://www.w3.org/2000/svg">
  <g transform="matrix(1 0 0 1 -38 -140 )">
    <path d="M 29.7704326923077 5.48863636363636  C 30.5901442307692 6.23863636363636  31 7.13636363636363  31 8.18181818181818  L 31 20.1818181818182  C 31 21.2272727272727  30.5901442307692 22.125  29.7704326923077 22.875  C 28.9507211538462 23.625  27.9695512820513 24  26.8269230769231 24  L 4.17307692307692 24  C 3.03044871794872 24  2.04927884615385 23.625  1.22956730769231 22.875  C 0.409855769230769 22.125  0 21.2272727272727  0 20.1818181818182  L 0 3.81818181818182  C 0 2.77272727272727  0.409855769230769 1.875  1.22956730769231 1.125  C 2.04927884615385 0.375  3.03044871794872 0  4.17307692307692 0  L 10.1346153846154 0  C 11.2772435897436 0  12.2584134615385 0.375  13.078125 1.125  C 13.8978365384615 1.875  14.3076923076923 2.77272727272727  14.3076923076923 3.81818181818182  L 14.3076923076923 4.36363636363636  L 26.8269230769231 4.36363636363636  C 27.9695512820513 4.36363636363636  28.9507211538462 4.73863636363636  29.7704326923077 5.48863636363636  Z " fill-rule="nonzero" fill="#ffffff" stroke="none" transform="matrix(1 0 0 1 38 140 )" />
  </g>
</svg>