<?xml version="1.0" encoding="utf-8"?>
<svg version="1.1" xmlns:xlink="http://www.w3.org/1999/xlink" width="30px" height="38px" xmlns="http://www.w3.org/2000/svg">
  <g transform="matrix(1 0 0 1 -38 -233 )">
    <path d="M 27.5785714285714 16.5613839285714  C 28.2785714285714 16.5189732142857  28.8714285714286 16.7451636904762  29.3571428571429 17.2399553571429  C 29.8428571428571 17.7347470238095  30.05 18.3143601190476  29.9785714285714 18.9787946428571  L 29.0357142857143 30.6629464285714  C 28.9785714285714 31.2566964285714  28.7321428571429 31.7514880952381  28.2964285714286 32.1473214285714  C 27.8607142857143 32.5431547619048  27.35 32.7410714285714  26.7642857142857 32.7410714285714  C 26.6785714285714 32.7410714285714  26.6142857142857 32.7340029761905  26.5714285714286 32.7198660714286  C 25.9428571428571 32.6774553571429  25.425 32.4194568452381  25.0178571428571 31.9458705357143  C 24.6107142857143 31.4722842261905  24.4285714285714 30.9244791666667  24.4714285714286 30.3024553571429  L 25.2214285714286 21.2053571428571  L 22.1571428571429 21.375  C 22.9428571428571 22.9724702380952  23.3357142857143 24.6688988095238  23.3357142857143 26.4642857142857  C 23.3357142857143 29.5178571428571  22.2785714285714 32.1473214285714  20.1642857142857 34.3526785714286  L 17.2285714285714 31.4475446428571  C 18.5285714285714 30.0197172619048  19.1785714285714 28.3586309523809  19.1785714285714 26.4642857142857  C 19.1785714285714 24.4144345238095  18.4464285714286 22.6614583333333  16.9821428571429 21.2053571428571  C 15.5178571428571 19.7492559523809  13.75 19.0212053571429  11.6785714285714 19.0212053571429  C 9.76428571428572 19.0212053571429  8.07857142857143 19.6715029761905  6.62142857142857 20.9720982142857  L 3.68571428571429 18.0457589285714  C 5.4 16.4341517857143  7.42857142857143 15.4375  9.77142857142857 15.0558035714286  L 15.4285714285714 8.69419642857143  L 12.2357142857143 6.84933035714286  L 8.35714285714286 10.2633928571429  C 7.88571428571429 10.6875  7.33571428571429 10.8818824404762  6.70714285714286 10.8465401785714  C 6.07857142857143 10.8111979166667  5.55714285714286 10.5602678571429  5.14285714285714 10.09375  C 4.72857142857143 9.62723214285714  4.53928571428572 9.08296130952381  4.575 8.4609375  C 4.61071428571429 7.83891369047619  4.85714285714286 7.32291666666666  5.31428571428571 6.91294642857143  L 10.4357142857143 2.39620535714286  C 10.8071428571429 2.07105654761904  11.2357142857143 1.88374255952381  11.7214285714286 1.83426339285714  C 12.2071428571429 1.78478422619047  12.6642857142857 1.88727678571429  13.0928571428571 2.14174107142857  L 23.55 8.14285714285714  C 24.0642857142857 8.43973214285714  24.4071428571429 8.9203869047619  24.5785714285714 9.58482142857143  C 24.8214285714286 10.531994047619  24.6357142857143 11.3590029761905  24.0214285714286 12.0658482142857  L 19.6285714285714 16.9854910714286  L 27.5785714285714 16.5613839285714  Z M 27.825 6.44642857142857  C 27.075 7.18154761904762  26.1714285714286 7.54910714285714  25.1142857142857 7.54910714285714  C 24.0571428571429 7.54910714285714  23.1571428571429 7.18154761904762  22.4142857142857 6.44642857142857  C 21.6714285714286 5.71130952380952  21.3 4.82068452380952  21.3 3.77455357142857  C 21.3 2.72842261904761  21.6714285714286 1.83779761904761  22.4142857142857 1.10267857142857  C 23.1571428571429 0.367559523809529  24.0571428571429 0  25.1142857142857 0  C 26.1714285714286 0  27.075 0.367559523809529  27.825 1.10267857142857  C 28.575 1.83779761904761  28.95 2.72842261904761  28.95 3.77455357142857  C 28.95 4.82068452380952  28.575 5.71130952380952  27.825 6.44642857142857  Z M 6.375 31.7126116071429  C 7.83928571428571 33.1616443452381  9.60714285714286 33.8861607142857  11.6785714285714 33.8861607142857  C 13.1928571428571 33.8861607142857  14.5928571428571 33.4549851190476  15.8785714285714 32.5926339285714  L 18.8571428571429 35.5401785714286  C 16.7714285714286 37.1800595238095  14.3785714285714 38  11.6785714285714 38  C 9.56428571428571 38  7.61071428571429 37.4840029761905  5.81785714285714 36.4520089285714  C 4.025 35.4200148809524  2.60714285714286 34.0204613095238  1.56428571428571 32.2533482142857  C 0.521428571428572 30.4862351190476  0 28.5565476190476  0 26.4642857142857  C 0 23.8065476190476  0.828571428571428 21.4315476190476  2.48571428571429 19.3392857142857  L 5.46428571428571 22.2868303571429  C 4.60714285714286 23.5308779761905  4.17857142857143 24.9233630952381  4.17857142857143 26.4642857142857  C 4.17857142857143 28.5141369047619  4.91071428571429 30.2635788690476  6.375 31.7126116071429  Z " fill-rule="nonzero" fill="#ffffff" stroke="none" transform="matrix(1 0 0 1 38 233 )" />
  </g>
</svg>